<svg width="130" height="130" viewBox="0 0 13 13" xmlns="http://www.w3.org/2000/svg">
  <style>
    .pixel { width: 1px; height: 1px; }
  </style>
  
  <!-- Simple classic five-pointed star -->
  <!-- Top point -->
  <rect x="6" y="0" width="1" height="1" fill="#000000" class="pixel"/>
  <rect x="6" y="1" width="1" height="1" fill="#000000" class="pixel"/>
  <rect x="6" y="2" width="1" height="1" fill="#000000" class="pixel"/>
  
  <!-- Upper left diagonal -->
  <rect x="5" y="3" width="1" height="1" fill="#000000" class="pixel"/>
  <rect x="4" y="4" width="1" height="1" fill="#000000" class="pixel"/>
  
  <!-- Left point -->
  <rect x="3" y="5" width="1" height="1" fill="#000000" class="pixel"/>
  <rect x="2" y="5" width="1" height="1" fill="#000000" class="pixel"/>
  <rect x="1" y="5" width="1" height="1" fill="#000000" class="pixel"/>
  <rect x="0" y="5" width="1" height="1" fill="#000000" class="pixel"/>
  
  <!-- Upper right diagonal -->
  <rect x="7" y="3" width="1" height="1" fill="#000000" class="pixel"/>
  <rect x="8" y="4" width="1" height="1" fill="#000000" class="pixel"/>
  
  <!-- Right point -->
  <rect x="9" y="5" width="1" height="1" fill="#000000" class="pixel"/>
  <rect x="10" y="5" width="1" height="1" fill="#000000" class="pixel"/>
  <rect x="11" y="5" width="1" height="1" fill="#000000" class="pixel"/>
  <rect x="12" y="5" width="1" height="1" fill="#000000" class="pixel"/>
  
  <!-- Inner V connection -->
  <rect x="4" y="6" width="1" height="1" fill="#000000" class="pixel"/>
  <rect x="5" y="6" width="1" height="1" fill="#000000" class="pixel"/>
  <rect x="6" y="6" width="1" height="1" fill="#000000" class="pixel"/>
  <rect x="7" y="6" width="1" height="1" fill="#000000" class="pixel"/>
  <rect x="8" y="6" width="1" height="1" fill="#000000" class="pixel"/>
  
  <!-- Bottom left diagonal -->
  <rect x="3" y="7" width="1" height="1" fill="#000000" class="pixel"/>
  <rect x="2" y="8" width="1" height="1" fill="#000000" class="pixel"/>
  
  <!-- Bottom left point -->
  <rect x="1" y="9" width="1" height="1" fill="#000000" class="pixel"/>
  <rect x="1" y="10" width="1" height="1" fill="#000000" class="pixel"/>
  <rect x="1" y="11" width="1" height="1" fill="#000000" class="pixel"/>
  <rect x="1" y="12" width="1" height="1" fill="#000000" class="pixel"/>
  
  <!-- Bottom right diagonal -->
  <rect x="9" y="7" width="1" height="1" fill="#000000" class="pixel"/>
  <rect x="10" y="8" width="1" height="1" fill="#000000" class="pixel"/>
  
  <!-- Bottom right point -->
  <rect x="11" y="9" width="1" height="1" fill="#000000" class="pixel"/>
  <rect x="11" y="10" width="1" height="1" fill="#000000" class="pixel"/>
  <rect x="11" y="11" width="1" height="1" fill="#000000" class="pixel"/>
  <rect x="11" y="12" width="1" height="1" fill="#000000" class="pixel"/>
  
  <!-- Bottom center connection -->
  <rect x="5" y="8" width="1" height="1" fill="#000000" class="pixel"/>
  <rect x="6" y="9" width="1" height="1" fill="#000000" class="pixel"/>
  <rect x="7" y="8" width="1" height="1" fill="#000000" class="pixel"/>
  
  <!-- Grid lines -->
  <defs>
    <pattern id="grid" width="1" height="1" patternUnits="userSpaceOnUse">
      <path d="M 1 0 L 0 0 0 1" fill="none" stroke="#ddd" stroke-width="0.05"/>
    </pattern>
  </defs>
  <rect width="13" height="13" fill="url(#grid)"/>
</svg>