<svg width="140" height="180" viewBox="0 0 7 9" xmlns="http://www.w3.org/2000/svg">
  <style>
    .pixel { width: 1px; height: 1px; }
  </style>
  
  <!-- Letter "A" example -->
  <!-- Top of A -->
  <rect x="2" y="0" width="1" height="1" fill="#000000" class="pixel"/>
  <rect x="3" y="0" width="1" height="1" fill="#000000" class="pixel"/>
  <rect x="4" y="0" width="1" height="1" fill="#000000" class="pixel"/>
  
  <!-- Upper sides -->
  <rect x="1" y="1" width="1" height="1" fill="#000000" class="pixel"/>
  <rect x="2" y="1" width="1" height="1" fill="#FFFFFF" class="pixel"/>
  <rect x="3" y="1" width="1" height="1" fill="#FFFFFF" class="pixel"/>
  <rect x="4" y="1" width="1" height="1" fill="#FFFFFF" class="pixel"/>
  <rect x="5" y="1" width="1" height="1" fill="#000000" class="pixel"/>
  
  <rect x="1" y="2" width="1" height="1" fill="#000000" class="pixel"/>
  <rect x="5" y="2" width="1" height="1" fill="#000000" class="pixel"/>
  
  <!-- Crossbar -->
  <rect x="1" y="3" width="1" height="1" fill="#000000" class="pixel"/>
  <rect x="2" y="3" width="1" height="1" fill="#000000" class="pixel"/>
  <rect x="3" y="3" width="1" height="1" fill="#000000" class="pixel"/>
  <rect x="4" y="3" width="1" height="1" fill="#000000" class="pixel"/>
  <rect x="5" y="3" width="1" height="1" fill="#000000" class="pixel"/>
  
  <!-- Lower sides -->
  <rect x="1" y="4" width="1" height="1" fill="#000000" class="pixel"/>
  <rect x="5" y="4" width="1" height="1" fill="#000000" class="pixel"/>
  
  <rect x="1" y="5" width="1" height="1" fill="#000000" class="pixel"/>
  <rect x="5" y="5" width="1" height="1" fill="#000000" class="pixel"/>
  
  <rect x="1" y="6" width="1" height="1" fill="#000000" class="pixel"/>
  <rect x="5" y="6" width="1" height="1" fill="#000000" class="pixel"/>
  
  <!-- Grid lines -->
  <defs>
    <pattern id="grid" width="1" height="1" patternUnits="userSpaceOnUse">
      <path d="M 1 0 L 0 0 0 1" fill="none" stroke="#ddd" stroke-width="0.05"/>
    </pattern>
  </defs>
  <rect width="7" height="9" fill="url(#grid)"/>
</svg>