<svg width="140" height="140" viewBox="0 0 7 7" xmlns="http://www.w3.org/2000/svg">
  <style>
    .pixel { width: 1px; height: 1px; }
    .label { font-size: 0.25px; fill: #666; text-anchor: middle; }
  </style>
  
  <!-- Triangle - starting from top point -->
  <!-- Row 0: 1 pixel (tip) -->
  <rect x="3" y="0" width="1" height="1" fill="#000000" class="pixel"/>
  
  <!-- Row 1: 1 pixel -->
  <rect x="3" y="1" width="1" height="1" fill="#000000" class="pixel"/>
  
  <!-- Row 2: 3 pixels -->
  <rect x="2" y="2" width="1" height="1" fill="#000000" class="pixel"/>
  <rect x="3" y="2" width="1" height="1" fill="#000000" class="pixel"/>
  <rect x="4" y="2" width="1" height="1" fill="#000000" class="pixel"/>
  
  <!-- Row 3: 3 pixels -->
  <rect x="2" y="3" width="1" height="1" fill="#000000" class="pixel"/>
  <rect x="3" y="3" width="1" height="1" fill="#000000" class="pixel"/>
  <rect x="4" y="3" width="1" height="1" fill="#000000" class="pixel"/>
  
  <!-- Row 4: 5 pixels -->
  <rect x="1" y="4" width="1" height="1" fill="#000000" class="pixel"/>
  <rect x="2" y="4" width="1" height="1" fill="#000000" class="pixel"/>
  <rect x="3" y="4" width="1" height="1" fill="#000000" class="pixel"/>
  <rect x="4" y="4" width="1" height="1" fill="#000000" class="pixel"/>
  <rect x="5" y="4" width="1" height="1" fill="#000000" class="pixel"/>
  
  <!-- Row 5: 5 pixels -->
  <rect x="1" y="5" width="1" height="1" fill="#000000" class="pixel"/>
  <rect x="2" y="5" width="1" height="1" fill="#000000" class="pixel"/>
  <rect x="3" y="5" width="1" height="1" fill="#000000" class="pixel"/>
  <rect x="4" y="5" width="1" height="1" fill="#000000" class="pixel"/>
  <rect x="5" y="5" width="1" height="1" fill="#000000" class="pixel"/>
  
  <!-- Row 6: 7 pixels (base) -->
  <rect x="0" y="6" width="1" height="1" fill="#000000" class="pixel"/>
  <rect x="1" y="6" width="1" height="1" fill="#000000" class="pixel"/>
  <rect x="2" y="6" width="1" height="1" fill="#000000" class="pixel"/>
  <rect x="3" y="6" width="1" height="1" fill="#000000" class="pixel"/>
  <rect x="4" y="6" width="1" height="1" fill="#000000" class="pixel"/>
  <rect x="5" y="6" width="1" height="1" fill="#000000" class="pixel"/>
  <rect x="6" y="6" width="1" height="1" fill="#000000" class="pixel"/>
  
  <!-- Grid lines -->
  <defs>
    <pattern id="grid" width="1" height="1" patternUnits="userSpaceOnUse">
      <path d="M 1 0 L 0 0 0 1" fill="none" stroke="#ddd" stroke-width="0.05"/>
    </pattern>
  </defs>
  <rect width="7" height="7" fill="url(#grid)"/>
</svg>